<?xml version="1.0" encoding="UTF-8"?>
<!DOCTYPE svg PUBLIC "-//W3C//DTD SVG 1.1//EN" "http://www.w3.org/Graphics/SVG/1.1/DTD/svg11.dtd">
<svg xmlns="http://www.w3.org/2000/svg" version="1.1" width="500px" height="500px" style="shape-rendering:geometricPrecision; text-rendering:geometricPrecision; image-rendering:optimizeQuality; fill-rule:evenodd; clip-rule:evenodd" xmlns:xlink="http://www.w3.org/1999/xlink">
<g><path style="opacity:1" fill="#fefefe" d="M -0.5,-0.5 C 166.167,-0.5 332.833,-0.5 499.5,-0.5C 499.5,166.167 499.5,332.833 499.5,499.5C 332.833,499.5 166.167,499.5 -0.5,499.5C -0.5,332.833 -0.5,166.167 -0.5,-0.5 Z"/></g>
<g><path style="opacity:1" fill="#010101" d="M 166.5,55.5 C 180.412,55.1767 194.246,55.5101 208,56.5C 234.171,121.017 260.338,185.517 286.5,250C 270.49,250.833 254.49,250.666 238.5,249.5C 236.667,244.5 234.833,239.5 233,234.5C 205.503,218.037 178.336,218.537 151.5,236C 128.713,257.317 124.547,281.817 139,309.5C 151.668,328.42 169.501,337.753 192.5,337.5C 207.156,337.224 220.656,333.224 233,325.5C 240.135,337.765 246.135,350.432 251,363.5C 237.274,372.771 222.107,378.271 205.5,380C 167.699,384.734 135.533,373.568 109,346.5C 82.9842,316.75 76.3175,283.083 89,245.5C 115.134,182.258 140.967,118.925 166.5,55.5 Z"/></g>
<g><path style="opacity:1" fill="#fafafa" d="M 186.5,115.5 C 194.983,133.932 202.316,152.932 208.5,172.5C 194.167,172.5 179.833,172.5 165.5,172.5C 172.3,153.435 179.3,134.435 186.5,115.5 Z"/></g>
<g><path style="opacity:1" fill="#50659b" d="M 318.5,233.5 C 329.791,232.09 340.457,233.924 350.5,239C 359.753,247.111 360.92,256.278 354,266.5C 345.942,272.97 336.775,277.137 326.5,279C 304.822,282.261 283.155,285.594 261.5,289C 250.836,291.333 240.502,294.666 230.5,299C 222.987,303.082 215.653,307.082 208.5,311C 229.653,295.722 253.32,286.722 279.5,284C 300.178,282.189 320.512,278.523 340.5,273C 347.162,270.669 352.329,266.503 356,260.5C 358.299,248.432 353.466,240.599 341.5,237C 332.833,235 324.167,235 315.5,237C 306.992,239.853 303.492,245.686 305,254.5C 306.873,256.709 309.04,258.542 311.5,260C 320.558,261.427 328.558,259.26 335.5,253.5C 336.521,254.002 336.688,254.668 336,255.5C 328.102,261.679 319.269,263.512 309.5,261C 302.204,256.283 300.704,250.116 305,242.5C 308.882,238.429 313.382,235.429 318.5,233.5 Z"/></g>
<g><path style="opacity:1" fill="#50649a" d="M 257.5,261.5 C 263.206,261.171 268.872,261.505 274.5,262.5C 257.822,263.631 241.322,265.964 225,269.5C 224.167,269.167 223.333,268.833 222.5,268.5C 234.087,265.184 245.753,262.85 257.5,261.5 Z"/></g>
<g><path style="opacity:1" fill="#4c6298" d="M 393.5,259.5 C 395.028,259.517 395.528,260.184 395,261.5C 383.042,273.399 368.875,281.566 352.5,286C 334.787,290.091 317.454,295.091 300.5,301C 303.802,299.349 307.136,297.682 310.5,296C 323.382,291.863 336.382,288.196 349.5,285C 363.758,281.037 376.758,274.703 388.5,266C 390.79,264.223 392.457,262.056 393.5,259.5 Z"/></g>
<g><path style="opacity:1" fill="#4a6097" d="M 258.5,273.5 C 265.508,273.334 272.508,273.5 279.5,274C 232.557,275.202 190.224,289.536 152.5,317C 151.668,317.688 151.002,317.521 150.5,316.5C 182.743,292.711 218.743,278.378 258.5,273.5 Z"/></g>
</svg>
