<?xml version="1.0" encoding="UTF-8"?>
<svg id="Layer_1" xmlns="http://www.w3.org/2000/svg" version="1.1" viewBox="0 0 24 24">
  <!-- Generator: Adobe Illustrator 29.1.0, SVG Export Plug-In . SVG Version: 2.1.0 Build 142)  -->
  <defs>
    <style>
      .st0 {
        fill: #50649a;
      }

      .st0, .st1, .st2, .st3, .st4, .st5 {
        fill-rule: evenodd;
      }

      .st1 {
        fill: #4c6298;
      }

      .st2 {
        fill: #010101;
      }

      .st3 {
        fill: #50659b;
      }

      .st6 {
        fill: #fff;
      }

      .st4 {
        fill: #4a6097;
      }

      .st5 {
        fill: #fafafa;
      }
    </style>
  </defs>
  <rect class="st6" width="24" height="24"/>
  <path class="st2" d="M7.1,1.5h2.5c1.6,4.3,3.2,8.5,4.8,12.8h-2.9c-.1-.3-.2-.7-.3-1-1.7-1.1-3.4-1.1-5,0-1.4,1.4-1.7,3-.8,4.9.8,1.3,1.9,1.9,3.3,1.9s1.7-.3,2.5-.8c.4.8.8,1.7,1.1,2.5-.8.6-1.8,1-2.8,1.1-2.3.3-4.3-.4-5.9-2.2-1.6-2-2-4.2-1.2-6.7C3.9,9.9,5.5,5.7,7.1,1.5Z"/>
  <path class="st3" d="M18.6,10.3c1-.2,1.9,0,2.8.6.8.9.9,1.9.3,3-.7.7-1.5,1.2-2.4,1.4-1.9.4-3.8.7-5.7,1.1-.9.3-1.8.6-2.7,1.1-.7.4-1.3.9-1.9,1.3,1.8-1.7,3.9-2.6,6.2-2.9,1.8-.2,3.6-.6,5.3-1.2.6-.3,1-.7,1.4-1.4.2-1.3-.2-2.2-1.3-2.5-.8-.2-1.5-.2-2.3,0-.7.3-1,.9-.9,1.9.2.2.4.4.6.6.8.2,1.5,0,2.1-.7,0,0,.1.1,0,.2-.7.7-1.5.9-2.3.6-.6-.5-.8-1.2-.4-2,.3-.4.7-.8,1.2-1h0Z"/>
  <path class="st4" d="M15.4,14.7h1.7c-3.8.1-7.1,1.4-10.2,3.9h-.2c2.6-2.2,5.5-3.4,8.6-3.9h0Z"/>
  <path class="st0" d="M10.7,15.3h.9c-.9,0-1.9.3-2.8.6h-.1c.6-.3,1.3-.5,2-.6Z"/>
  <path class="st1" d="M20,15.9q.2,0,.2.2c-1.3.9-2.8,1.6-4.6,1.9-1.9.3-3.8.7-5.7,1.2l1.1-.4c1.4-.3,2.8-.6,4.2-.9,1.5-.3,3-.8,4.2-1.5.2-.1.4-.3.5-.5h0Z"/>
  <path class="st5" d="M8.3,4.2c.6,1.9,1.1,3.8,1.6,5.7h-3.1c.5-1.9,1-3.8,1.5-5.7Z"/>
</svg>